<?xml version="1.0" encoding="utf-8"?>
<!-- generated at drububu.com  -->
<!DOCTYPE svg PUBLIC "-//W3C//DTD SVG 1.1//EN" "http://www.w3.org/Graphics/SVG/1.1/DTD/svg11.dtd">
<svg version="1.1" preserveAspectRatio="xMinYMin meet" xmlns="http://www.w3.org/2000/svg" xmlns:xlink="http://www.w3.org/1999/xlink" x="0px" y="0px" width="79px" height="28px" viewBox="0 0 79 28">
<path d="M0 0h1v28h-1v-28z" fill="rgb(0,138,118)"/>
<path d="M1 0h1v1h-1v-1z" fill="rgb(4,4,4)"/>
<path d="M2 0h1v1h-1v-1z" fill="rgb(20,20,20)"/>
<path d="M3 0h1v1h-1v-1z" fill="rgb(53,53,53)"/>
<path d="M4 0h31v1h-31v-1z" fill="rgb(69,69,69)"/>
<path d="M35 0h1v1h-1v-1z" fill="rgb(53,53,53)"/>
<path d="M36 0h1v1h-1v-1z" fill="rgb(36,36,36)"/>
<path d="M37 0h1v1h-1v-1z" fill="rgb(20,20,20)"/>
<path d="M38 0h1v1h-1v-1z" fill="rgb(4,4,4)"/>
<path d="M39 0h2v28h-2v-28z" fill="rgb(0,138,118)"/>
<path d="M41 0h38v14h-1v3h1v9h-1v1h-35v-1h33v-1h1v-12h-1v-1h1v-10h-1v-1h-33v1
	h-2v-2z" fill="rgb(4,4,4)"/>
<path d="M1 1h1v1h-1v-1z" fill="rgb(53,53,53)"/>
<path d="M2 1h1v1h-1v-1z" fill="rgb(128,144,160)"/>
<path d="M3 1h1v1h-1v-1z" fill="rgb(138,189,233)"/>
<path d="M4 1h1v1h-1v-1z" fill="rgb(128,144,160)"/>
<path d="M5 1h1v1h-1v-1z" fill="rgb(102,102,102)"/>
<path d="M6 1h1v1h-1v-1z" fill="rgb(118,118,118)"/>
<path d="M7 1h28v1h-28v-1z" fill="rgb(102,102,102)"/>
<path d="M35 1h1v2h1v7h-1v1h-6v-1h1v-1h-2v-1h-5v1h-2v-1h-1v1h-2v-1h-1v1h-1v2h-1
	v-2h-1v-1h-1v3h1v2h-1v3h1v2h-2v-2h-1v-1h-2v-1h3v-2h-1v-1h1v-2h-1v-1h-5v-6h28
	v-1z" fill="rgb(86,86,86)"/>
<path d="M36 1h1v1h-1v-1z" fill="rgb(53,53,53)"/>
<path d="M37 1h2v12h-1v-10h-1v-2z" fill="rgb(36,36,36)"/>
<path d="M43 1h1v1h-1v-1z" fill="rgb(20,20,20)"/>
<path d="M44 1h31v1h-31v-1z" fill="rgb(36,36,36)"/>
<path d="M75 1h1v1h-1v-1z" fill="rgb(20,20,20)"/>
<path d="M1 2h1v1h-1v-1z" fill="rgb(108,127,147)"/>
<path d="M2 2h1v1h-1v-1z" fill="rgb(200,232,255)"/>
<path d="M3 2h1v1h-1v-1z" fill="rgb(108,127,147)"/>
<path d="M4 2h1v1h-1v-1z" fill="rgb(74,98,122)"/>
<path d="M5 2h1v3h-1v-3z" fill="rgb(47,72,97)"/>
<path d="M6 2h1v23h-1v-23z" fill="rgb(102,102,102)"/>
<path d="M36 2h1v1h-1v-1z" fill="rgb(69,69,69)"/>
<path d="M41 2h1v1h-1v-1z" fill="rgb(20,20,20)"/>
<path d="M42 2h1v1h-1v-1z" fill="rgb(90,112,134)"/>
<path d="M43 2h1v1h-1v-1z" fill="rgb(83,145,211)"/>
<path d="M44 2h1v1h-1v-1z" fill="rgb(90,112,134)"/>
<path d="M45 2h1v1h-1v-1z" fill="rgb(69,69,69)"/>
<path d="M46 2h1v1h-1v-1z" fill="rgb(86,86,86)"/>
<path d="M47 2h28v1h-28v-1z" fill="rgb(69,69,69)"/>
<path d="M75 2h1v2h1v7h-1v1h-6v-1h1v-1h-2v-1h-5v1h-2v-1h-1v1h-2v-1h-1v1h-1v2h-1
	v-2h-1v-1h-1v3h1v2h-1v3h1v2h-2v-2h-1v-1h-2v-1h3v-2h-1v-1h1v-2h-1v-1h-5v-6h28
	v-1z" fill="rgb(53,53,53)"/>
<path d="M76 2h1v1h-1v-1z" fill="rgb(20,20,20)"/>
<path d="M1 3h1v2h-1v-2z" fill="rgb(138,189,233)"/>
<path d="M2 3h1v1h-1v-1z" fill="rgb(108,127,147)"/>
<path d="M3 3h1v1h-1v-1z" fill="rgb(74,98,122)"/>
<path d="M4 3h1v3h-3v-1h1v-1h1v-1z" fill="rgb(59,84,109)"/>
<path d="M31 3h1v1h-1v-1z" fill="rgb(53,53,53)"/>
<path d="M32 3h1v1h-1v-1z" fill="rgb(17,38,59)"/>
<path d="M33 3h2v1h-2v-1z" fill="rgb(35,59,84)"/>
<path d="M37 3h1v10h-1v-10z" fill="rgb(20,20,20)"/>
<path d="M41 3h1v1h-1v-1z" fill="rgb(74,98,122)"/>
<path d="M42 3h1v1h-1v-1z" fill="rgb(138,189,233)"/>
<path d="M43 3h1v1h-1v-1z" fill="rgb(74,98,122)"/>
<path d="M44 3h1v1h-1v-1z" fill="rgb(47,72,97)"/>
<path d="M45 3h1v3h-1v-3z" fill="rgb(25,48,72)"/>
<path d="M46 3h1v23h-1v-23z" fill="rgb(69,69,69)"/>
<path d="M76 3h1v1h-1v-1z" fill="rgb(36,36,36)"/>
<path d="M2 4h1v1h-1v-1z" fill="rgb(74,98,122)"/>
<path d="M31 4h1v1h-1v-1z" fill="rgb(17,38,59)"/>
<path d="M32 4h1v1h-1v-1z" fill="rgb(108,127,147)"/>
<path d="M33 4h1v1h-1v-1z" fill="rgb(59,84,109)"/>
<path d="M34 4h1v1h-1v-1z" fill="rgb(47,72,97)"/>
<path d="M35 4h1v2h-1v-2z" fill="rgb(90,112,134)"/>
<path d="M41 4h1v2h-1v-2z" fill="rgb(83,145,211)"/>
<path d="M42 4h1v1h-1v-1z" fill="rgb(74,98,122)"/>
<path d="M43 4h1v1h-1v-1z" fill="rgb(47,72,97)"/>
<path d="M44 4h1v3h-3v-1h1v-1h1v-1z" fill="rgb(35,59,84)"/>
<path d="M71 4h1v1h-1v-1z" fill="rgb(20,20,20)"/>
<path d="M72 4h1v1h-1v-1z" fill="rgb(4,4,4)"/>
<path d="M73 4h2v1h-2v-1z" fill="rgb(17,38,59)"/>
<path d="M1 5h1v1h-1v-1z" fill="rgb(128,144,160)"/>
<path d="M5 5h1v3h-1v-3z" fill="rgb(69,69,69)"/>
<path d="M31 5h1v3h-1v-3z" fill="rgb(35,59,84)"/>
<path d="M32 5h1v1h-1v-1z" fill="rgb(168,210,244)"/>
<path d="M33 5h1v1h-1v-1z" fill="rgb(83,145,211)"/>
<path d="M34 5h1v4h-2v-1h1v-3z" fill="rgb(59,84,109)"/>
<path d="M42 5h1v1h-1v-1z" fill="rgb(47,72,97)"/>
<path d="M71 5h1v1h-1v-1z" fill="rgb(4,4,4)"/>
<path d="M72 5h1v1h-1v-1z" fill="rgb(74,98,122)"/>
<path d="M73 5h1v1h-1v-1z" fill="rgb(35,59,84)"/>
<path d="M74 5h1v1h-1v-1z" fill="rgb(25,48,72)"/>
<path d="M75 5h1v2h-1v-2z" fill="rgb(59,84,109)"/>
<path d="M1 6h1v1h-1v-1z" fill="rgb(90,112,134)"/>
<path d="M2 6h3v1h-3v-1z" fill="rgb(47,72,97)"/>
<path d="M32 6h1v1h-1v-1z" fill="rgb(83,145,211)"/>
<path d="M33 6h1v1h-1v-1z" fill="rgb(108,127,147)"/>
<path d="M35 6h1v2h-1v-2z" fill="rgb(108,127,147)"/>
<path d="M41 6h1v1h-1v-1z" fill="rgb(90,112,134)"/>
<path d="M45 6h1v3h-1v-3z" fill="rgb(36,36,36)"/>
<path d="M71 6h1v3h-1v-3z" fill="rgb(17,38,59)"/>
<path d="M72 6h1v1h-1v-1z" fill="rgb(109,166,222)"/>
<path d="M73 6h1v1h-1v-1z" fill="rgb(38,104,189)"/>
<path d="M74 6h1v4h-2v-1h1v-3z" fill="rgb(35,59,84)"/>
<path d="M1 7h1v1h-1v-1z" fill="rgb(138,189,233)"/>
<path d="M2 7h1v1h-1v-1z" fill="rgb(108,127,147)"/>
<path d="M3 7h1v1h-1v-1z" fill="rgb(90,112,134)"/>
<path d="M4 7h1v1h-1v-1z" fill="rgb(74,98,122)"/>
<path d="M32 7h1v1h-1v-1z" fill="rgb(59,84,109)"/>
<path d="M33 7h1v1h-1v-1z" fill="rgb(90,112,134)"/>
<path d="M41 7h1v1h-1v-1z" fill="rgb(59,84,109)"/>
<path d="M42 7h3v1h-3v-1z" fill="rgb(25,48,72)"/>
<path d="M72 7h1v1h-1v-1z" fill="rgb(38,104,189)"/>
<path d="M73 7h1v1h-1v-1z" fill="rgb(74,98,122)"/>
<path d="M75 7h1v2h-1v-2z" fill="rgb(74,98,122)"/>
<path d="M1 8h1v1h-1v-1z" fill="rgb(128,144,160)"/>
<path d="M2 8h3v17h-1v-1h-1v-1h-1v-1h-1v-10h1v-4z" fill="rgb(59,84,109)"/>
<path d="M5 8h1v16h-1v-16z" fill="rgb(47,72,97)"/>
<path d="M7 8h1v1h-1v-1z" fill="rgb(174,180,200)"/>
<path d="M8 8h1v1h-1v-1z" fill="rgb(142,154,173)"/>
<path d="M9 8h3v1h-3v-1z" fill="rgb(128,144,160)"/>
<path d="M14 8h1v1h-1v-1z" fill="rgb(174,180,200)"/>
<path d="M18 8h1v1h-1v-1z" fill="rgb(189,192,213)"/>
<path d="M21 8h1v1h-1v-1z" fill="rgb(157,166,186)"/>
<path d="M24 8h1v1h-1v-1z" fill="rgb(157,166,186)"/>
<path d="M25 8h1v1h-1v-1z" fill="rgb(142,154,173)"/>
<path d="M26 8h3v1h-2v7h-1v-8z" fill="rgb(128,144,160)"/>
<path d="M31 8h2v1h-2v-1z" fill="rgb(47,72,97)"/>
<path d="M35 8h1v1h-1v-1z" fill="rgb(83,145,211)"/>
<path d="M41 8h1v1h-1v-1z" fill="rgb(83,145,211)"/>
<path d="M42 8h1v1h-1v-1z" fill="rgb(74,98,122)"/>
<path d="M43 8h1v1h-1v-1z" fill="rgb(59,84,109)"/>
<path d="M44 8h1v1h-1v-1z" fill="rgb(47,72,97)"/>
<path d="M72 8h1v1h-1v-1z" fill="rgb(35,59,84)"/>
<path d="M73 8h1v1h-1v-1z" fill="rgb(59,84,109)"/>
<path d="M1 9h1v1h-1v-1z" fill="rgb(90,112,134)"/>
<path d="M7 9h1v1h-1v-1z" fill="rgb(142,154,173)"/>
<path d="M8 9h3v1h-2v1h-1v-2z" fill="rgb(20,20,20)"/>
<path d="M11 9h1v1h-1v-1z" fill="rgb(36,36,36)"/>
<path d="M12 9h1v1h-1v-1z" fill="rgb(53,53,53)"/>
<path d="M14 9h1v1h-1v-1z" fill="rgb(128,144,160)"/>
<path d="M15 9h1v1h-1v-1z" fill="rgb(69,69,69)"/>
<path d="M17 9h1v1h-1v-1z" fill="rgb(102,102,102)"/>
<path d="M18 9h1v1h-1v-1z" fill="rgb(128,144,160)"/>
<path d="M19 9h1v1h-1v-1z" fill="rgb(53,53,53)"/>
<path d="M20 9h1v3h-1v-3z" fill="rgb(69,69,69)"/>
<path d="M21 9h1v1h-1v-1z" fill="rgb(142,154,173)"/>
<path d="M22 9h1v1h-1v-1z" fill="rgb(53,53,53)"/>
<path d="M23 9h2v1h-2v-1z" fill="rgb(69,69,69)"/>
<path d="M25 9h1v1h-1v-1z" fill="rgb(36,36,36)"/>
<path d="M27 9h1v6h-1v-6z" fill="rgb(20,20,20)"/>
<path d="M28 9h1v1h-1v-1z" fill="rgb(36,36,36)"/>
<path d="M29 9h1v1h-1v-1z" fill="rgb(53,53,53)"/>
<path d="M30 9h1v1h-1v-1z" fill="rgb(69,69,69)"/>
<path d="M32 9h1v1h-1v-1z" fill="rgb(90,112,134)"/>
<path d="M33 9h1v1h-1v-1z" fill="rgb(108,127,147)"/>
<path d="M34 9h1v1h-1v-1z" fill="rgb(83,145,211)"/>
<path d="M41 9h1v1h-1v-1z" fill="rgb(90,112,134)"/>
<path d="M42 9h3v17h-1v-1h-1v-1h-1v-1h-1v-10h1v-4z" fill="rgb(35,59,84)"/>
<path d="M45 9h1v16h-1v-16z" fill="rgb(25,48,72)"/>
<path d="M47 9h1v1h-1v-1z" fill="rgb(142,154,173)"/>
<path d="M48 9h1v1h-1v-1z" fill="rgb(108,127,147)"/>
<path d="M49 9h3v1h-3v-1z" fill="rgb(90,112,134)"/>
<path d="M54 9h1v1h-1v-1z" fill="rgb(142,154,173)"/>
<path d="M58 9h1v1h-1v-1z" fill="rgb(157,166,186)"/>
<path d="M61 9h1v1h-1v-1z" fill="rgb(128,144,160)"/>
<path d="M64 9h1v1h-1v-1z" fill="rgb(128,144,160)"/>
<path d="M65 9h1v1h-1v-1z" fill="rgb(108,127,147)"/>
<path d="M66 9h3v1h-2v7h-1v-8z" fill="rgb(90,112,134)"/>
<path d="M71 9h2v1h-2v-1z" fill="rgb(25,48,72)"/>
<path d="M75 9h1v1h-1v-1z" fill="rgb(38,104,189)"/>
<path d="M1 10h1v2h-1v-2z" fill="rgb(74,98,122)"/>
<path d="M7 10h1v1h3v1h-3v3h4v1h-5v-6z" fill="rgb(128,144,160)"/>
<path d="M9 10h3v1h-3v-1z" fill="rgb(53,53,53)"/>
<path d="M12 10h1v1h-1v-1z" fill="rgb(69,69,69)"/>
<path d="M14 10h1v1h-1v-1z" fill="rgb(102,102,102)"/>
<path d="M15 10h1v1h-1v-1z" fill="rgb(128,144,160)"/>
<path d="M17 10h1v1h-1v-1z" fill="rgb(128,144,160)"/>
<path d="M18 10h1v1h-1v-1z" fill="rgb(69,69,69)"/>
<path d="M19 10h1v1h-1v-1z" fill="rgb(20,20,20)"/>
<path d="M21 10h1v6h-1v-6z" fill="rgb(128,144,160)"/>
<path d="M22 10h1v1h-1v-1z" fill="rgb(36,36,36)"/>
<path d="M23 10h1v5h-1v-5z" fill="rgb(53,53,53)"/>
<path d="M24 10h2v7h1v8h-2v-9h-1v-6z" fill="rgb(86,86,86)"/>
<path d="M28 10h1v1h-1v-1z" fill="rgb(53,53,53)"/>
<path d="M29 10h1v1h6v1h-8v-1h1v-1z" fill="rgb(69,69,69)"/>
<path d="M36 10h1v1h-1v-1z" fill="rgb(69,69,69)"/>
<path d="M41 10h1v1h-1v-1z" fill="rgb(59,84,109)"/>
<path d="M47 10h1v1h-1v-1z" fill="rgb(108,127,147)"/>
<path d="M48 10h4v1h-3v1h-1v-2z" fill="rgb(4,4,4)"/>
<path d="M52 10h1v1h-1v-1z" fill="rgb(20,20,20)"/>
<path d="M54 10h1v1h-1v-1z" fill="rgb(90,112,134)"/>
<path d="M55 10h1v1h-1v-1z" fill="rgb(36,36,36)"/>
<path d="M57 10h1v1h-1v-1z" fill="rgb(69,69,69)"/>
<path d="M58 10h1v1h-1v-1z" fill="rgb(90,112,134)"/>
<path d="M59 10h1v1h-1v-1z" fill="rgb(20,20,20)"/>
<path d="M60 10h1v3h-1v-3z" fill="rgb(36,36,36)"/>
<path d="M61 10h1v1h-1v-1z" fill="rgb(108,127,147)"/>
<path d="M62 10h1v1h-1v-1z" fill="rgb(20,20,20)"/>
<path d="M63 10h2v1h-2v-1z" fill="rgb(36,36,36)"/>
<path d="M65 10h1v1h-1v-1z" fill="rgb(4,4,4)"/>
<path d="M67 10h2v1h-1v6h-1v-7z" fill="rgb(4,4,4)"/>
<path d="M69 10h1v1h-1v-1z" fill="rgb(20,20,20)"/>
<path d="M70 10h1v1h-1v-1z" fill="rgb(36,36,36)"/>
<path d="M72 10h1v1h-1v-1z" fill="rgb(59,84,109)"/>
<path d="M73 10h1v1h-1v-1z" fill="rgb(74,98,122)"/>
<path d="M74 10h1v1h-1v-1z" fill="rgb(38,104,189)"/>
<path d="M11 11h1v1h-1v-1z" fill="rgb(102,102,102)"/>
<path d="M15 11h1v1h-1v-1z" fill="rgb(102,102,102)"/>
<path d="M16 11h1v1h-1v-1z" fill="rgb(128,144,160)"/>
<path d="M17 11h1v1h-1v-1z" fill="rgb(69,69,69)"/>
<path d="M18 11h1v1h-1v-1z" fill="rgb(20,20,20)"/>
<path d="M19 11h1v1h-1v-1z" fill="rgb(53,53,53)"/>
<path d="M22 11h1v4h-1v-4z" fill="rgb(20,20,20)"/>
<path d="M36 11h1v1h-1v-1z" fill="rgb(36,36,36)"/>
<path d="M41 11h1v2h-1v-2z" fill="rgb(47,72,97)"/>
<path d="M47 11h1v1h3v1h-3v3h4v1h-5v-6z" fill="rgb(90,112,134)"/>
<path d="M49 11h3v1h-3v-1z" fill="rgb(20,20,20)"/>
<path d="M52 11h1v1h-1v-1z" fill="rgb(36,36,36)"/>
<path d="M54 11h1v1h-1v-1z" fill="rgb(69,69,69)"/>
<path d="M55 11h1v1h-1v-1z" fill="rgb(90,112,134)"/>
<path d="M57 11h1v1h-1v-1z" fill="rgb(90,112,134)"/>
<path d="M58 11h1v1h-1v-1z" fill="rgb(36,36,36)"/>
<path d="M59 11h1v1h-1v-1z" fill="rgb(4,4,4)"/>
<path d="M61 11h1v6h-1v-6z" fill="rgb(90,112,134)"/>
<path d="M62 11h1v6h-1v-6z" fill="rgb(4,4,4)"/>
<path d="M63 11h1v5h-1v-5z" fill="rgb(20,20,20)"/>
<path d="M64 11h2v7h1v8h-2v-9h-1v-6z" fill="rgb(53,53,53)"/>
<path d="M68 11h1v1h-1v-1z" fill="rgb(20,20,20)"/>
<path d="M69 11h1v1h6v1h-8v-1h1v-1z" fill="rgb(36,36,36)"/>
<path d="M76 11h1v1h-1v-1z" fill="rgb(36,36,36)"/>
<path d="M8 12h3v1h-2v2h-1v-3z" fill="rgb(20,20,20)"/>
<path d="M11 12h2v1h-2v-1z" fill="rgb(36,36,36)"/>
<path d="M15 12h1v2h-1v-2z" fill="rgb(128,144,160)"/>
<path d="M16 12h1v1h-1v-1z" fill="rgb(86,86,86)"/>
<path d="M17 12h1v2h-1v-2z" fill="rgb(128,144,160)"/>
<path d="M18 12h1v1h-1v-1z" fill="rgb(53,53,53)"/>
<path d="M19 12h1v1h-1v-1z" fill="rgb(69,69,69)"/>
<path d="M20 12h1v2h-2v-1h1v-1z" fill="rgb(86,86,86)"/>
<path d="M28 12h1v5h-1v-5z" fill="rgb(47,72,97)"/>
<path d="M29 12h1v1h5v-1h1v11h-1v1h-1v1h-5v-7h-1v-1h1v-5z" fill="rgb(59,84,109)"/>
<path d="M30 12h3v1h-3v-1z" fill="rgb(90,112,134)"/>
<path d="M33 12h2v1h-2v-1z" fill="rgb(74,98,122)"/>
<path d="M36 12h1v11h-1v-11z" fill="rgb(69,69,69)"/>
<path d="M51 12h1v1h-1v-1z" fill="rgb(69,69,69)"/>
<path d="M55 12h1v1h-1v-1z" fill="rgb(69,69,69)"/>
<path d="M56 12h1v1h-1v-1z" fill="rgb(90,112,134)"/>
<path d="M57 12h1v1h-1v-1z" fill="rgb(36,36,36)"/>
<path d="M58 12h1v1h-1v-1z" fill="rgb(4,4,4)"/>
<path d="M59 12h1v1h-1v-1z" fill="rgb(20,20,20)"/>
<path d="M9 13h3v1h-3v-1z" fill="rgb(53,53,53)"/>
<path d="M12 13h1v1h-1v-1z" fill="rgb(69,69,69)"/>
<path d="M14 13h1v1h-1v-1z" fill="rgb(102,102,102)"/>
<path d="M16 13h1v1h-1v-1z" fill="rgb(36,36,36)"/>
<path d="M18 13h1v1h-1v-1z" fill="rgb(69,69,69)"/>
<path d="M37 13h1v1h-1v-1z" fill="rgb(36,36,36)"/>
<path d="M38 13h1v1h-1v-1z" fill="rgb(53,53,53)"/>
<path d="M48 13h5v1h-4v2h-1v-3z" fill="rgb(4,4,4)"/>
<path d="M55 13h1v2h-1v-2z" fill="rgb(90,112,134)"/>
<path d="M56 13h1v1h-1v-1z" fill="rgb(53,53,53)"/>
<path d="M57 13h1v2h-1v-2z" fill="rgb(90,112,134)"/>
<path d="M58 13h1v1h-1v-1z" fill="rgb(20,20,20)"/>
<path d="M59 13h1v1h-1v-1z" fill="rgb(36,36,36)"/>
<path d="M60 13h1v2h-2v-1h1v-1z" fill="rgb(53,53,53)"/>
<path d="M68 13h1v5h-1v-5z" fill="rgb(25,48,72)"/>
<path d="M69 13h1v1h5v-1h1v11h-1v1h-1v1h-5v-7h-1v-1h1v-5z" fill="rgb(35,59,84)"/>
<path d="M70 13h3v1h-3v-1z" fill="rgb(59,84,109)"/>
<path d="M73 13h2v1h-2v-1z" fill="rgb(47,72,97)"/>
<path d="M76 13h1v11h-1v-11z" fill="rgb(36,36,36)"/>
<path d="M9 14h1v1h-1v-1z" fill="rgb(69,69,69)"/>
<path d="M14 14h1v2h-1v-2z" fill="rgb(128,144,160)"/>
<path d="M15 14h1v1h-1v-1z" fill="rgb(69,69,69)"/>
<path d="M16 14h1v1h-1v-1z" fill="rgb(20,20,20)"/>
<path d="M17 14h1v1h-1v-1z" fill="rgb(86,86,86)"/>
<path d="M18 14h1v2h-1v-2z" fill="rgb(128,144,160)"/>
<path d="M19 14h1v1h-1v-1z" fill="rgb(53,53,53)"/>
<path d="M20 14h1v1h-1v-1z" fill="rgb(69,69,69)"/>
<path d="M37 14h1v11h-1v1h-35v-1h34v-1h1v-10z" fill="rgb(20,20,20)"/>
<path d="M38 14h1v1h-1v-1z" fill="rgb(69,69,69)"/>
<path d="M49 14h3v1h-3v-1z" fill="rgb(20,20,20)"/>
<path d="M52 14h1v1h-1v-1z" fill="rgb(36,36,36)"/>
<path d="M54 14h1v1h-1v-1z" fill="rgb(69,69,69)"/>
<path d="M56 14h1v2h-1v-2z" fill="rgb(4,4,4)"/>
<path d="M58 14h1v1h-1v-1z" fill="rgb(36,36,36)"/>
<path d="M78 14h1v1h-1v-1z" fill="rgb(20,20,20)"/>
<path d="M15 15h1v1h-1v-1z" fill="rgb(20,20,20)"/>
<path d="M16 15h1v1h-1v-1z" fill="rgb(53,53,53)"/>
<path d="M17 15h1v1h-1v-1z" fill="rgb(69,69,69)"/>
<path d="M19 15h1v2h-1v-2z" fill="rgb(20,20,20)"/>
<path d="M20 15h1v1h-1v-1z" fill="rgb(47,72,97)"/>
<path d="M22 15h1v1h-1v-1z" fill="rgb(36,36,36)"/>
<path d="M23 15h1v1h-1v-1z" fill="rgb(59,84,109)"/>
<path d="M27 15h1v1h-1v-1z" fill="rgb(36,36,36)"/>
<path d="M38 15h1v1h-1v-1z" fill="rgb(53,53,53)"/>
<path d="M49 15h1v1h-1v-1z" fill="rgb(36,36,36)"/>
<path d="M54 15h1v2h-1v-2z" fill="rgb(90,112,134)"/>
<path d="M55 15h1v1h-1v-1z" fill="rgb(36,36,36)"/>
<path d="M57 15h1v1h-1v-1z" fill="rgb(53,53,53)"/>
<path d="M58 15h1v2h-1v-2z" fill="rgb(90,112,134)"/>
<path d="M59 15h1v1h-1v-1z" fill="rgb(20,20,20)"/>
<path d="M60 15h1v1h-1v-1z" fill="rgb(36,36,36)"/>
<path d="M78 15h1v1h-1v-1z" fill="rgb(36,36,36)"/>
<path d="M7 16h1v1h-1v-1z" fill="rgb(69,69,69)"/>
<path d="M8 16h1v1h-1v-1z" fill="rgb(36,36,36)"/>
<path d="M9 16h2v1h-2v-1z" fill="rgb(20,20,20)"/>
<path d="M11 16h1v1h-1v-1z" fill="rgb(36,36,36)"/>
<path d="M12 16h1v1h-1v-1z" fill="rgb(53,53,53)"/>
<path d="M15 16h1v1h-1v-1z" fill="rgb(53,53,53)"/>
<path d="M16 16h2v9h-2v-6h-1v-1h1v-2z" fill="rgb(86,86,86)"/>
<path d="M18 16h1v9h-1v-9z" fill="rgb(69,69,69)"/>
<path d="M20 16h1v1h-1v-1z" fill="rgb(35,59,84)"/>
<path d="M21 16h1v2h1v7h-4v-1h1v-6h1v-2z" fill="rgb(59,84,109)"/>
<path d="M22 16h1v1h-1v-1z" fill="rgb(25,48,72)"/>
<path d="M23 16h1v9h-1v-7h-1v-1h1v-1z" fill="rgb(47,72,97)"/>
<path d="M24 16h1v9h-1v-9z" fill="rgb(102,102,102)"/>
<path d="M26 16h1v1h-1v-1z" fill="rgb(69,69,69)"/>
<path d="M27 16h1v1h-1v-1z" fill="rgb(53,53,53)"/>
<path d="M38 16h1v10h-1v1h-35v-1h34v-1h1v-9z" fill="rgb(36,36,36)"/>
<path d="M55 16h1v1h-1v-1z" fill="rgb(4,4,4)"/>
<path d="M56 16h1v1h-1v-1z" fill="rgb(20,20,20)"/>
<path d="M57 16h1v1h-1v-1z" fill="rgb(36,36,36)"/>
<path d="M59 16h1v2h-1v-2z" fill="rgb(4,4,4)"/>
<path d="M60 16h1v1h-1v-1z" fill="rgb(25,48,72)"/>
<path d="M63 16h1v1h-1v-1z" fill="rgb(35,59,84)"/>
<path d="M78 16h1v1h-1v-1z" fill="rgb(20,20,20)"/>
<path d="M7 17h1v1h1v7h-2v-8z" fill="rgb(86,86,86)"/>
<path d="M8 17h1v1h-1v-1z" fill="rgb(69,69,69)"/>
<path d="M9 17h3v1h-3v-1z" fill="rgb(53,53,53)"/>
<path d="M12 17h1v1h2v1h-5v6h-1v-7h3v-1z" fill="rgb(69,69,69)"/>
<path d="M15 17h1v1h-1v-1z" fill="rgb(69,69,69)"/>
<path d="M19 17h1v1h-1v-1z" fill="rgb(35,59,84)"/>
<path d="M20 17h1v1h-1v-1z" fill="rgb(47,72,97)"/>
<path d="M27 17h1v8h-1v-8z" fill="rgb(69,69,69)"/>
<path d="M47 17h1v1h-1v-1z" fill="rgb(36,36,36)"/>
<path d="M48 17h4v1h-4v-1z" fill="rgb(4,4,4)"/>
<path d="M52 17h1v1h-1v-1z" fill="rgb(20,20,20)"/>
<path d="M55 17h1v1h-1v-1z" fill="rgb(20,20,20)"/>
<path d="M56 17h2v9h-2v-6h-1v-1h1v-2z" fill="rgb(53,53,53)"/>
<path d="M58 17h1v9h-1v-9z" fill="rgb(36,36,36)"/>
<path d="M60 17h1v1h-1v-1z" fill="rgb(17,38,59)"/>
<path d="M61 17h1v2h1v7h-4v-1h1v-6h1v-2z" fill="rgb(35,59,84)"/>
<path d="M62 17h1v1h-1v-1z" fill="rgb(10,29,47)"/>
<path d="M63 17h1v9h-1v-7h-1v-1h1v-1z" fill="rgb(25,48,72)"/>
<path d="M64 17h1v9h-1v-9z" fill="rgb(69,69,69)"/>
<path d="M66 17h1v1h-1v-1z" fill="rgb(36,36,36)"/>
<path d="M67 17h1v1h-1v-1z" fill="rgb(20,20,20)"/>
<path d="M19 18h1v1h-1v-1z" fill="rgb(47,72,97)"/>
<path d="M28 18h1v6h-1v-6z" fill="rgb(74,98,122)"/>
<path d="M47 18h1v1h1v7h-2v-8z" fill="rgb(53,53,53)"/>
<path d="M48 18h1v1h-1v-1z" fill="rgb(36,36,36)"/>
<path d="M49 18h3v1h-3v-1z" fill="rgb(20,20,20)"/>
<path d="M52 18h1v1h2v1h-5v6h-1v-7h3v-1z" fill="rgb(36,36,36)"/>
<path d="M55 18h1v1h-1v-1z" fill="rgb(36,36,36)"/>
<path d="M59 18h1v1h-1v-1z" fill="rgb(17,38,59)"/>
<path d="M60 18h1v1h-1v-1z" fill="rgb(25,48,72)"/>
<path d="M67 18h1v8h-1v-8z" fill="rgb(36,36,36)"/>
<path d="M10 19h1v1h-1v-1z" fill="rgb(108,127,147)"/>
<path d="M11 19h3v1h-3v-1z" fill="rgb(90,112,134)"/>
<path d="M14 19h1v1h-1v-1z" fill="rgb(59,84,109)"/>
<path d="M15 19h1v6h-1v-6z" fill="rgb(102,102,102)"/>
<path d="M19 19h1v5h-1v-5z" fill="rgb(74,98,122)"/>
<path d="M59 19h1v1h-1v-1z" fill="rgb(25,48,72)"/>
<path d="M68 19h1v6h-1v-6z" fill="rgb(47,72,97)"/>
<path d="M10 20h1v1h-1v-1z" fill="rgb(90,112,134)"/>
<path d="M11 20h3v5h-4v-1h1v-4z" fill="rgb(59,84,109)"/>
<path d="M14 20h1v5h-1v-5z" fill="rgb(47,72,97)"/>
<path d="M50 20h1v1h-1v-1z" fill="rgb(74,98,122)"/>
<path d="M51 20h3v1h-3v-1z" fill="rgb(59,84,109)"/>
<path d="M54 20h1v1h-1v-1z" fill="rgb(35,59,84)"/>
<path d="M55 20h1v6h-1v-6z" fill="rgb(69,69,69)"/>
<path d="M59 20h1v5h-1v-5z" fill="rgb(47,72,97)"/>
<path d="M10 21h1v3h-1v-3z" fill="rgb(74,98,122)"/>
<path d="M50 21h1v1h-1v-1z" fill="rgb(59,84,109)"/>
<path d="M51 21h3v5h-4v-1h1v-4z" fill="rgb(35,59,84)"/>
<path d="M54 21h1v5h-1v-5z" fill="rgb(25,48,72)"/>
<path d="M1 22h1v1h-1v-1z" fill="rgb(47,72,97)"/>
<path d="M50 22h1v3h-1v-3z" fill="rgb(47,72,97)"/>
<path d="M1 23h1v1h-1v-1z" fill="rgb(35,59,84)"/>
<path d="M2 23h1v1h-1v-1z" fill="rgb(47,72,97)"/>
<path d="M35 23h1v1h-1v-1z" fill="rgb(69,69,69)"/>
<path d="M36 23h1v1h-1v-1z" fill="rgb(53,53,53)"/>
<path d="M41 23h1v1h-1v-1z" fill="rgb(25,48,72)"/>
<path d="M1 24h1v1h-1v-1z" fill="rgb(25,48,72)"/>
<path d="M2 24h1v1h-1v-1z" fill="rgb(35,59,84)"/>
<path d="M3 24h1v1h-1v-1z" fill="rgb(47,72,97)"/>
<path d="M5 24h1v1h-1v-1z" fill="rgb(69,69,69)"/>
<path d="M28 24h1v1h-1v-1z" fill="rgb(86,86,86)"/>
<path d="M34 24h1v1h-1v-1z" fill="rgb(69,69,69)"/>
<path d="M35 24h1v1h-1v-1z" fill="rgb(53,53,53)"/>
<path d="M41 24h1v1h-1v-1z" fill="rgb(17,38,59)"/>
<path d="M42 24h1v1h-1v-1z" fill="rgb(25,48,72)"/>
<path d="M75 24h1v1h-1v-1z" fill="rgb(36,36,36)"/>
<path d="M76 24h1v1h-1v-1z" fill="rgb(20,20,20)"/>
<path d="M1 25h1v1h-1v-1z" fill="rgb(36,36,36)"/>
<path d="M41 25h1v1h-1v-1z" fill="rgb(10,29,47)"/>
<path d="M42 25h1v1h-1v-1z" fill="rgb(17,38,59)"/>
<path d="M43 25h1v1h-1v-1z" fill="rgb(25,48,72)"/>
<path d="M45 25h1v1h-1v-1z" fill="rgb(36,36,36)"/>
<path d="M68 25h1v1h-1v-1z" fill="rgb(53,53,53)"/>
<path d="M74 25h1v1h-1v-1z" fill="rgb(36,36,36)"/>
<path d="M75 25h1v1h-1v-1z" fill="rgb(20,20,20)"/>
<path d="M1 26h2v1h35v-1h1v2h-38v-2z" fill="rgb(53,53,53)"/>
<path d="M41 26h2v1h-2v-1z" fill="rgb(20,20,20)"/>
<path d="M78 26h1v1h-1v-1z" fill="rgb(20,20,20)"/>
<path d="M41 27h1v1h-1v-1z" fill="rgb(53,53,53)"/>
<path d="M42 27h1v1h-1v-1z" fill="rgb(36,36,36)"/>
<path d="M43 27h34v1h-34v-1z" fill="rgb(20,20,20)"/>
<path d="M77 27h2v1h-2v-1z" fill="rgb(36,36,36)"/>
</svg>