<?xml version="1.0" encoding="utf-8"?>
<!-- generated at drububu.com  -->
<!DOCTYPE svg PUBLIC "-//W3C//DTD SVG 1.1//EN" "http://www.w3.org/Graphics/SVG/1.1/DTD/svg11.dtd">
<svg version="1.1" preserveAspectRatio="xMinYMin meet" xmlns="http://www.w3.org/2000/svg" xmlns:xlink="http://www.w3.org/1999/xlink" x="0px" y="0px" width="222px" height="38px" viewBox="0 0 222 38">
<path d="M0 0h222v38h-222v-38z" fill="rgb(0,138,118)"/>
<path d="M6 3h1v1h-1v-1z" fill="rgb(69,69,69)"/>
<path d="M7 3h1v1h-1v-1z" fill="rgb(102,102,102)"/>
<path d="M8 3h1v1h-1v-1z" fill="rgb(135,135,135)"/>
<path d="M9 3h97v1h-97v-1z" fill="rgb(118,118,118)"/>
<path d="M106 3h1v1h-1v-1z" fill="rgb(102,102,102)"/>
<path d="M107 3h3v1h-3v-1z" fill="rgb(69,69,69)"/>
<path d="M110 3h1v1h-1v-1z" fill="rgb(53,53,53)"/>
<path d="M111 3h101v1h-101v-1z" fill="rgb(36,36,36)"/>
<path d="M212 3h2v2h-1v-1h-1v-1z" fill="rgb(69,69,69)"/>
<path d="M6 4h1v1h-1v-1z" fill="rgb(102,102,102)"/>
<path d="M7 4h1v1h-1v-1z" fill="rgb(151,151,151)"/>
<path d="M8 4h99v1h1v10h-1v1h-1v1h-99v-12h1v-1z" fill="rgb(86,86,86)"/>
<path d="M107 4h3v1h-1v1h-1v-1h-1v-1z" fill="rgb(53,53,53)"/>
<path d="M110 4h1v1h-1v-1z" fill="rgb(36,36,36)"/>
<path d="M111 4h102v12h-1v1h-102v-1h-1v-1h1v-10h1v-1z" fill="rgb(53,53,53)"/>
<path d="M6 5h1v1h-1v-1z" fill="rgb(135,135,135)"/>
<path d="M109 5h1v10h-1v1h-1v-10h1v-1z" fill="rgb(36,36,36)"/>
<path d="M213 5h1v10h-1v-10z" fill="rgb(102,102,102)"/>
<path d="M6 6h1v9h-1v-9z" fill="rgb(118,118,118)"/>
<path d="M6 15h1v1h-1v-1z" fill="rgb(102,102,102)"/>
<path d="M107 15h1v1h-1v-1z" fill="rgb(69,69,69)"/>
<path d="M213 15h1v1h-1v-1z" fill="rgb(118,118,118)"/>
<path d="M6 16h1v1h1v1h-2v-2z" fill="rgb(69,69,69)"/>
<path d="M106 16h1v1h-1v-1z" fill="rgb(69,69,69)"/>
<path d="M107 16h1v1h-1v-1z" fill="rgb(36,36,36)"/>
<path d="M108 16h1v1h-1v-1z" fill="rgb(53,53,53)"/>
<path d="M109 16h1v1h1v1h-3v-1h1v-1z" fill="rgb(69,69,69)"/>
<path d="M212 16h1v1h-1v-1z" fill="rgb(135,135,135)"/>
<path d="M213 16h1v1h-1v-1z" fill="rgb(102,102,102)"/>
<path d="M8 17h1v1h-1v-1z" fill="rgb(53,53,53)"/>
<path d="M9 17h98v1h-98v-1z" fill="rgb(36,36,36)"/>
<path d="M107 17h1v1h-1v-1z" fill="rgb(53,53,53)"/>
<path d="M111 17h1v1h-1v-1z" fill="rgb(86,86,86)"/>
<path d="M112 17h99v1h-99v-1z" fill="rgb(102,102,102)"/>
<path d="M211 17h1v1h-1v-1z" fill="rgb(118,118,118)"/>
<path d="M212 17h1v1h-1v-1z" fill="rgb(102,102,102)"/>
<path d="M213 17h1v1h-1v-1z" fill="rgb(69,69,69)"/>
<path d="M6 22h1v1h-1v-1z" fill="rgb(69,69,69)"/>
<path d="M7 22h1v1h-1v-1z" fill="rgb(53,53,53)"/>
<path d="M8 22h204v1h-204v-1z" fill="rgb(36,36,36)"/>
<path d="M212 22h2v2h-1v-1h-1v-1z" fill="rgb(69,69,69)"/>
<path d="M6 23h1v1h-1v-1z" fill="rgb(53,53,53)"/>
<path d="M7 23h1v1h-1v-1z" fill="rgb(36,36,36)"/>
<path d="M8 23h205v12h-1v1h-205v-1h-1v-1h1v-10h1v-1z" fill="rgb(53,53,53)"/>
<path d="M6 24h1v10h-1v-10z" fill="rgb(36,36,36)"/>
<path d="M213 24h1v10h-1v-10z" fill="rgb(102,102,102)"/>
<path d="M213 34h1v1h-1v-1z" fill="rgb(118,118,118)"/>
<path d="M6 35h1v1h1v1h-2v-2z" fill="rgb(69,69,69)"/>
<path d="M212 35h1v1h-1v-1z" fill="rgb(135,135,135)"/>
<path d="M213 35h1v1h-1v-1z" fill="rgb(102,102,102)"/>
<path d="M8 36h1v1h-1v-1z" fill="rgb(86,86,86)"/>
<path d="M9 36h202v1h-202v-1z" fill="rgb(102,102,102)"/>
<path d="M211 36h1v1h-1v-1z" fill="rgb(118,118,118)"/>
<path d="M212 36h1v1h-1v-1z" fill="rgb(102,102,102)"/>
<path d="M213 36h1v1h-1v-1z" fill="rgb(69,69,69)"/>
</svg>